<?xml version="1.0" encoding="UTF-8" standalone="no"?>
<!-- Created with Inkscape (http://www.inkscape.org/) -->

<svg
   xmlns:dc="http://purl.org/dc/elements/1.1/"
   xmlns:cc="http://creativecommons.org/ns#"
   xmlns:rdf="http://www.w3.org/1999/02/22-rdf-syntax-ns#"
   xmlns:svg="http://www.w3.org/2000/svg"
   xmlns="http://www.w3.org/2000/svg"
   xmlns:sodipodi="http://sodipodi.sourceforge.net/DTD/sodipodi-0.dtd"
   xmlns:inkscape="http://www.inkscape.org/namespaces/inkscape"
   width="500"
   height="587.92395"
   id="svg4713"
   version="1.1"
   inkscape:version="0.48.4 r9939"
   sodipodi:docname="New document 42">
  <defs
     id="defs4715" />
  <sodipodi:namedview
     id="base"
     pagecolor="#ffffff"
     bordercolor="#666666"
     borderopacity="1.0"
     inkscape:pageopacity="0.0"
     inkscape:pageshadow="2"
     inkscape:zoom="0.24748737"
     inkscape:cx="-193.93865"
     inkscape:cy="254.97929"
     inkscape:document-units="px"
     inkscape:current-layer="layer1"
     showgrid="false"
     showguides="true"
     inkscape:guide-bbox="true"
     fit-margin-top="0"
     fit-margin-left="0"
     fit-margin-right="0"
     fit-margin-bottom="0"
     inkscape:window-width="1920"
     inkscape:window-height="1014"
     inkscape:window-x="0"
     inkscape:window-y="27"
     inkscape:window-maximized="1" />
  <metadata
     id="metadata4718">
    <rdf:RDF>
      <cc:Work
         rdf:about="">
        <dc:format>image/svg+xml</dc:format>
        <dc:type
           rdf:resource="http://purl.org/dc/dcmitype/StillImage" />
        <dc:title></dc:title>
      </cc:Work>
    </rdf:RDF>
  </metadata>
  <g
     inkscape:label="Layer 1"
     inkscape:groupmode="layer"
     id="layer1"
     transform="translate(-134.32777,-272.63667)">
    <path
       style="font-size:medium;font-style:normal;font-variant:normal;font-weight:normal;font-stretch:normal;text-indent:0;text-align:start;text-decoration:none;line-height:normal;letter-spacing:normal;word-spacing:normal;text-transform:none;direction:ltr;block-progression:tb;writing-mode:lr-tb;text-anchor:start;baseline-shift:baseline;color:#000000;fill:#000000;fill-opacity:1;stroke:#ff0000;stroke-width:6;stroke-miterlimit:4;stroke-dasharray:none;marker:none;visibility:visible;display:inline;overflow:visible;enable-background:accumulate;font-family:Sans;-inkscape-font-specification:Sans"
       d="m 332.34375,482.84375 0,0.5 0,103.59375 0,0.5 0.5,0 21.96875,0 0.5,0 0,-0.5 0.0312,-45.46875 43.4375,0 0,45.46875 0,0.5 0.5,0 21.96875,0 0.5,0 0,-0.5 0,-103.59375 0,-0.5 -0.5,0 -22.21875,0 -0.5,0 0,0.5 0.125,34.40625 -43.09375,0 0,-34.40625 0,-0.5 -0.5,0 -22.21875,0 -0.5,0 z m 1,1 21.21875,0 0,34.40625 0,0.5 0.5,0 44.09375,0 0.5,0 0,-0.5 -0.125,-34.40625 21.21875,0 0,102.59375 -20.96875,0 0,-45.46875 0,-0.5 -0.5,0 -44.4375,0 -0.5,0 0,0.5 -0.0312,45.46875 -20.96875,0 0,-102.59375 z"
       id="path4775-8-5"
       inkscape:connector-curvature="0" />
    <path
       sodipodi:nodetypes="sssssssscccs"
       inkscape:connector-curvature="0"
       d="m 569.92221,772.63667 c 35.68068,10e-6 64.40556,-28.72488 64.40556,-64.40556 l 0,-371.18889 c 0,-35.68068 -28.72488,-64.40555 -64.40556,-64.40555 l -371.18888,0 c -35.68068,0 -64.40556,28.72487 -64.40556,64.40555 l 0,371.18889 c 0,35.68068 28.72488,64.40546 64.40556,64.40546 l 231.10244,3e-5 4.1e-4,87.924 99.99959,-87.92399 z"
       style="fill:#62b0df;fill-opacity:1;stroke:none"
       id="rect4680" />
    <g
       id="g5358"
       transform="translate(3.939085,10.101525)">
      <path
         sodipodi:nodetypes="ccccccccccccc"
         inkscape:connector-curvature="0"
         d="m 289.89573,498.76527 0,-102.63066 -65.33817,0 0,304.58499 64.59568,0 0.0429,-135.13119 130.7192,0 0,135.13119 64.59569,0 0,-304.58499 -65.33817,0 0.32834,102.63066 z"
         style="fill:#ffffff;stroke:none"
         id="path4775-8" />
      <g
         transform="matrix(2.9400671,0,0,2.9400671,-751.74603,-1035.7222)"
         style="fill:#7f003f;fill-opacity:1"
         id="g5353">
        <path
           sodipodi:nodetypes="ccccccccccccc"
           inkscape:connector-curvature="0"
           d="m 450.19014,481.05795 0,-10.5236 -13.21614,-0.006 0.021,-13.20925 -10.54346,0 4.4e-4,13.20915 -13.19603,0.006 4.7e-4,10.5236 13.19535,4.1e-4 -2e-4,13.19474 10.48033,0 0.0312,-13.19494 z"
           style="fill:#7f003f;fill-opacity:1;stroke:none"
           id="path5326-6" />
      </g>
    </g>
  </g>
</svg>
